<svg xmlns="http://www.w3.org/2000/svg" style="display:none">
  <symbol id="bsdc-logo" viewBox="0 0 128 128"><rect width="128" height="128" rx="28" fill="currentColor"/><path d="M64 14 108 32v28c0 29.5-17.9 48.9-44 58-26.1-9.1-44-28.5-44-58V32l44-18Z" fill="#2D6A4F" stroke="#FFD60A" stroke-width="5"/><path d="M51 46 34 64l17 18M77 46l17 18-17 18" fill="none" stroke="#fff" stroke-width="8" stroke-linecap="round" stroke-linejoin="round"/><path d="M69 40 58 88" fill="none" stroke="#FFD60A" stroke-width="7" stroke-linecap="round"/></symbol>
  <symbol id="home" viewBox="0 0 24 24"><path d="M3 11.5 12 4l9 7.5V21a1 1 0 0 1-1 1h-5v-7H9v7H4a1 1 0 0 1-1-1v-9.5Z" fill="none" stroke="currentColor" stroke-width="2" stroke-linejoin="round"/></symbol>
  <symbol id="search" viewBox="0 0 24 24"><circle cx="11" cy="11" r="7" fill="none" stroke="currentColor" stroke-width="2"/><path d="m16.5 16.5 4 4" fill="none" stroke="currentColor" stroke-width="2" stroke-linecap="round"/></symbol>
  <symbol id="feed" viewBox="0 0 24 24"><path d="M5 5h14M5 12h14M5 19h9" fill="none" stroke="currentColor" stroke-width="2" stroke-linecap="round"/></symbol>
  <symbol id="shield" viewBox="0 0 24 24"><path d="M12 3 20 6v5c0 5.2-3.2 8.6-8 10-4.8-1.4-8-4.8-8-10V6l8-3Z" fill="none" stroke="currentColor" stroke-width="2" stroke-linejoin="round"/></symbol>
  <symbol id="bolt" viewBox="0 0 24 24"><path d="M13 2 4 14h7l-1 8 10-13h-7l0-7Z" fill="none" stroke="currentColor" stroke-width="2" stroke-linejoin="round"/></symbol>
  <symbol id="database" viewBox="0 0 24 24"><ellipse cx="12" cy="5" rx="8" ry="3" fill="none" stroke="currentColor" stroke-width="2"/><path d="M4 5v7c0 1.7 3.6 3 8 3s8-1.3 8-3V5M4 12v7c0 1.7 3.6 3 8 3s8-1.3 8-3v-7" fill="none" stroke="currentColor" stroke-width="2"/></symbol>
  <symbol id="wifi-off" viewBox="0 0 24 24"><path d="M2 2l20 20M8.5 16.5a5 5 0 0 1 7 0M5 13a10 10 0 0 1 5.2-2.8M14 10.2A10 10 0 0 1 19 13M2 8a15 15 0 0 1 5-2.8M11.5 5a15 15 0 0 1 10.5 3" fill="none" stroke="currentColor" stroke-width="2" stroke-linecap="round"/><circle cx="12" cy="20" r="1" fill="currentColor"/></symbol>
</svg>
